<svg width="144" height="20" viewBox="0 0 144 20" fill="none" xmlns="http://www.w3.org/2000/svg">
<g clip-path="url(#clip0_1_744)">
<path d="M1.91802 7.05462H0.781407C0.390697 7.05462 0.177582 6.90917 0.177582 6.50917C0.177582 6.14553 0.390697 5.96371 0.781407 5.96371H1.91802V4.94554C1.91802 3.16372 2.806 2.25462 4.54643 2.25462C5.2213 2.25462 5.82512 2.40008 6.32239 2.65462C6.92622 3.05462 7.21037 3.60008 7.21037 4.25462C7.21037 4.72735 7.06829 4.90917 6.7131 4.90917C6.46447 4.90917 6.25135 4.76371 6.18031 4.50917C6.03824 4.03644 5.89616 3.74553 5.7896 3.63644C5.57649 3.3819 5.15026 3.23644 4.54643 3.23644C3.44534 3.23644 2.98359 3.7819 2.98359 4.83644V5.85462H5.0437C5.50545 5.85462 5.71857 6.00008 5.71857 6.40008C5.71857 6.76371 5.46993 6.94553 5.0437 6.94553H2.98359V13.6728C2.98359 14.0728 2.84152 14.291 2.48633 14.291C2.13113 14.291 1.98906 14.0728 1.98906 13.6728L1.91802 7.05462ZM11.1175 13.2001V7.09099H9.59015C9.16392 7.09099 8.95081 6.94553 8.95081 6.54553C8.95081 6.1819 9.16392 6.00008 9.59015 6.00008H11.6147C11.9699 6.00008 12.1475 6.29099 12.1475 6.90917C12.7869 6.21826 13.4262 5.85462 14.1721 5.85462C14.7759 5.85462 15.2022 6.00008 15.5574 6.40008C15.9126 6.80008 16.0546 7.27281 16.0546 7.85462C16.0546 8.25462 15.9126 8.47281 15.5574 8.47281C15.3442 8.47281 15.2022 8.32735 15.0956 8.07281C14.9535 7.56371 14.847 7.30917 14.847 7.27281C14.7049 7.01826 14.3852 6.87281 14.0656 6.87281C13.6748 6.87281 13.2841 7.01826 12.9645 7.34553C12.7514 7.49099 12.4672 7.81826 12.112 8.29099V13.2001H14.03C14.4918 13.2001 14.6694 13.3455 14.6694 13.7092C14.6694 14.0728 14.4563 14.2546 14.03 14.2546H9.59015C9.1284 14.2546 8.95081 14.1092 8.95081 13.7092C8.95081 13.3455 9.16392 13.1637 9.59015 13.1637H11.153L11.1175 13.2001ZM18.8251 10.291V11.4546C18.8251 12.7274 19.6776 13.3092 21.3825 13.3092C22.0218 13.3092 22.5191 13.2728 22.9098 13.091C23.1229 13.0546 23.4426 12.8364 23.9399 12.4728C24.224 12.1819 24.4727 12.0364 24.5792 12.0364C24.8634 12.0364 25.041 12.1819 25.041 12.4728C25.041 12.7637 24.8279 13.1274 24.4016 13.491C23.7268 14.0364 22.6612 14.3637 21.347 14.3637C18.9672 14.3637 17.7951 13.4183 17.7951 11.4183V8.54553C17.7951 7.89099 18.0437 7.27281 18.541 6.83644C19.1803 6.1819 20.1749 5.89099 21.4535 5.89099C23.7623 5.89099 24.8989 7.09099 24.8989 9.49099C24.8989 10.1092 24.6503 10.3637 24.2596 10.3637L18.8251 10.291ZM18.8251 9.23644H23.9044C23.9044 7.6728 23.0519 6.87281 21.347 6.87281C20.7076 6.87281 20.1749 7.01826 19.6065 7.34553C19.1093 7.74553 18.8251 8.14553 18.8251 8.65462V9.23644ZM27.7404 10.291V11.4546C27.7404 12.7274 28.5929 13.3092 30.2978 13.3092C30.9371 13.3092 31.4344 13.2728 31.8251 13.091C32.0382 13.0546 32.3579 12.8364 32.8552 12.4728C33.1393 12.1819 33.388 12.0364 33.4945 12.0364C33.7787 12.0364 33.9563 12.1819 33.9563 12.4728C33.9563 12.7637 33.7432 13.1274 33.3169 13.491C32.6421 14.0364 31.5765 14.3637 30.2623 14.3637C27.8825 14.3637 26.7104 13.4183 26.7104 11.4183V8.54553C26.7104 7.89099 26.959 7.27281 27.4563 6.83644C28.0956 6.1819 29.0902 5.89099 30.3688 5.89099C32.6776 5.89099 33.8142 7.09099 33.8142 9.49099C33.8142 10.1092 33.5656 10.3637 33.1749 10.3637L27.7404 10.291ZM27.7404 9.23644H32.8197C32.8197 7.6728 31.9672 6.87281 30.2623 6.87281C29.6229 6.87281 29.0902 7.01826 28.5218 7.34553C27.9891 7.74553 27.7404 8.14553 27.7404 8.65462V9.23644ZM35.6967 11.0183V6.47281C35.6967 4.03644 36.9399 2.8728 39.3907 2.8728C40.3852 2.8728 41.1667 3.12735 41.806 3.52735C42.4809 4.07281 42.8361 4.83644 42.8361 5.81826C42.8361 6.29099 42.694 6.47281 42.3033 6.47281C42.0546 6.47281 41.8415 6.25462 41.7705 5.81826C41.735 5.45462 41.5574 5.12735 41.3798 4.80008C41.0956 4.1819 40.3852 3.92735 39.3197 3.92735C38.4317 3.92735 37.7568 4.1819 37.3306 4.61826C36.9044 5.05462 36.7978 5.74553 36.7978 6.69099V10.4728C36.7978 11.491 37.0109 12.1819 37.4016 12.5819C37.8634 13.0546 38.5027 13.3455 39.3907 13.3455C40.7759 13.3455 41.5574 12.8364 41.7705 11.891C41.877 11.491 41.877 11.3455 41.877 11.2728C41.9836 11.0546 42.1257 10.9819 42.3388 10.9819C42.694 10.9819 42.8716 11.2364 42.8716 11.6364C42.8716 12.5455 42.4809 13.2364 41.7705 13.8183C41.1667 14.2183 40.4207 14.4364 39.4617 14.4364C38.3251 14.4364 37.4371 14.1819 36.7978 13.6364C36.0519 13.0183 35.6967 12.1092 35.6967 11.0183ZM44.4699 11.6728V8.65462C44.4699 6.80008 45.6421 5.89099 48.0218 5.89099C50.4016 5.89099 51.5738 6.80008 51.5738 8.65462V11.6728C51.5738 13.5274 50.4016 14.4364 48.0574 14.4364C45.6776 14.4001 44.4699 13.491 44.4699 11.6728ZM50.5437 11.6728V8.65462C50.5437 7.49099 49.6912 6.94553 47.9863 6.94553C46.3524 6.94553 45.4645 7.56371 45.4645 8.65462V11.6728C45.4645 12.8364 46.3169 13.3819 48.0218 13.3819C49.7623 13.3455 50.5437 12.7637 50.5437 11.6728ZM59.388 13.3819C58.8907 13.7819 58.5 14.0001 58.1093 14.1455C57.7186 14.291 57.2213 14.4001 56.6885 14.4001C55.765 14.4001 54.9481 14.1819 54.3798 13.7819C53.7049 13.3092 53.3497 12.6183 53.3497 11.6728V8.54553C53.3497 7.63644 53.7049 6.94553 54.3442 6.47281C54.877 6.07281 55.694 5.85462 56.582 5.85462C57.1858 5.85462 57.683 5.89099 58.0738 6.0728C58.4645 6.21826 58.9262 6.47281 59.3524 6.87281V3.09099C59.3524 2.5819 59.4945 2.32735 59.8497 2.32735C60.2049 2.32735 60.3825 2.5819 60.3825 3.09099V13.8546C60.3825 14.2546 60.2404 14.4001 59.8852 14.4001C59.6721 14.4001 59.53 14.291 59.4945 14.0364C59.4235 13.891 59.388 13.6728 59.388 13.3819ZM59.3169 12.1819V7.92735C58.8197 7.52735 58.4289 7.27281 58.0738 7.16371C57.612 7.01826 57.1858 6.90917 56.6885 6.90917C56.0492 6.90917 55.5164 7.01826 55.1257 7.30917C54.6284 7.60008 54.3442 8.10917 54.3442 8.69099V11.6364C54.3442 12.2546 54.5929 12.691 55.1257 13.0546C55.5874 13.3092 56.0492 13.4546 56.7596 13.4546C57.2923 13.4546 57.7896 13.3455 58.1803 13.2001C58.5355 12.8728 58.9262 12.5819 59.3169 12.1819ZM63.2596 10.291V11.4546C63.2596 12.7274 64.112 13.3092 65.8169 13.3092C66.4563 13.3092 66.9535 13.2728 67.3443 13.091C67.5574 13.0546 67.877 12.8364 68.3743 12.4728C68.6585 12.1819 68.9071 12.0364 69.0136 12.0364C69.2978 12.0364 69.4754 12.1819 69.4754 12.4728C69.4754 12.7637 69.2623 13.1274 68.8361 13.491C68.1612 14.0364 67.0956 14.3637 65.7814 14.3637C63.4016 14.3637 62.2295 13.4183 62.2295 11.4183V8.54553C62.2295 7.89099 62.4781 7.27281 62.9754 6.83644C63.6147 6.1819 64.6093 5.89099 65.888 5.89099C68.1967 5.89099 69.3333 7.09099 69.3333 9.49099C69.3333 10.1092 69.0847 10.3637 68.694 10.3637L63.2596 10.291ZM63.2596 9.23644H68.3388C68.3388 7.6728 67.4863 6.87281 65.7814 6.87281C65.1421 6.87281 64.6093 7.01826 64.041 7.34553C63.5082 7.74553 63.2596 8.14553 63.2596 8.65462V9.23644ZM71.2158 11.0183V6.47281C71.2158 4.03644 72.459 2.8728 74.9098 2.8728C75.9044 2.8728 76.6858 3.12735 77.3251 3.52735C78 4.07281 78.3552 4.83644 78.3552 5.81826C78.3552 6.29099 78.2131 6.47281 77.8224 6.47281C77.5738 6.47281 77.3606 6.25462 77.2896 5.81826C77.2541 5.45462 77.0765 5.12735 76.8989 4.80008C76.6147 4.1819 75.9044 3.92735 74.8388 3.92735C73.9508 3.92735 73.2759 4.1819 72.8497 4.61826C72.459 5.09099 72.3169 5.74553 72.3169 6.69099V10.4728C72.3169 11.491 72.53 12.1819 72.9208 12.5819C73.347 13.0546 74.0218 13.3455 74.9098 13.3455C76.2951 13.3455 77.0765 12.8364 77.2896 11.891C77.3962 11.491 77.3962 11.3455 77.3962 11.2728C77.5027 11.0546 77.6448 10.9819 77.8224 10.9819C78.1776 10.9819 78.3552 11.2364 78.3552 11.6364C78.3552 12.5455 77.9645 13.2364 77.2541 13.8183C76.6503 14.2183 75.9044 14.4364 74.9453 14.4364C73.8087 14.4364 72.9208 14.1819 72.2814 13.6364C71.571 13.0183 71.2158 12.1092 71.2158 11.0183ZM85.7076 13.3819C85.2104 13.7819 84.8197 14.0364 84.5355 14.1455C84.1448 14.291 83.6831 14.4001 83.1503 14.4001C82.2978 14.4001 81.5874 14.2546 81.0191 13.8546C80.3798 13.3819 80.0956 12.8001 80.0956 11.9274C80.0956 11.0546 80.4508 10.4001 81.0901 9.89099C81.6229 9.45462 82.3688 9.23644 83.2568 9.23644C83.9317 9.23644 84.7486 9.3819 85.6721 9.74553V8.43644C85.6721 7.81826 85.388 7.3819 84.8197 7.12735C84.4289 6.9819 83.9317 6.87281 83.3989 6.87281C82.0492 6.87281 81.3743 7.27281 81.2322 8.03644C81.1967 8.40008 81.1257 8.5819 81.1257 8.5819C81.0191 8.72735 80.877 8.83644 80.6639 8.83644C80.2732 8.83644 80.1311 8.61826 80.1311 8.21826C80.1311 7.67281 80.3442 7.16371 80.7705 6.69099C81.2677 6.0728 82.1912 5.81826 83.541 5.81826C84.571 5.81826 85.3524 5.96371 85.8497 6.36371C86.4535 6.83644 86.7377 7.52735 86.7377 8.5819V12.3274C86.7377 12.7637 86.8442 13.091 86.9863 13.2001C86.9863 13.2001 87.1994 13.3092 87.4836 13.4546C87.6257 13.5637 87.7322 13.7092 87.7322 13.9637C87.7322 14.2546 87.5901 14.4364 87.2705 14.4364C87.1639 14.4364 87.0218 14.4364 86.8087 14.3274C86.418 14.1819 86.1694 14.0728 86.1339 14.0728C85.8852 13.891 85.7787 13.6728 85.7076 13.3819ZM85.6721 12.291V10.7274C84.8907 10.4728 84.1093 10.3274 83.4344 10.3274C81.9071 10.3274 81.1612 10.8364 81.1612 11.8546C81.1612 12.4001 81.4098 12.8001 81.8361 13.0183C82.2268 13.2364 82.6885 13.3092 83.2213 13.3092C83.7186 13.3092 84.1448 13.2001 84.5355 13.0183C84.8197 12.9455 85.1749 12.691 85.6721 12.291ZM89.6503 6.72735C89.8989 6.43644 90.1475 6.1819 90.2896 6.0728C90.5382 5.92735 90.7869 5.81826 91.1776 5.81826C91.7104 5.81826 92.2076 6.10917 92.6694 6.72735C92.9535 6.36371 93.2022 6.10917 93.4508 6.03644C93.6994 5.89099 94.0546 5.81826 94.4453 5.81826C95.6885 5.81826 96.2568 6.43644 96.2568 7.67281V13.6364C96.2568 14.1455 96.1147 14.4001 95.724 14.4001C95.3688 14.4001 95.2268 14.1455 95.2268 13.6364V8.03644C95.2268 7.27281 94.9426 6.87281 94.3388 6.87281C93.877 6.87281 93.4508 7.16371 93.0601 7.74553V13.6364C93.0601 14.1455 92.918 14.4001 92.5628 14.4001C92.2076 14.4001 92.0656 14.1455 92.0656 13.6364V8.1819C92.0656 7.30917 91.7104 6.90917 91.071 6.90917C90.6093 6.90917 90.2186 7.20008 89.8279 7.7819V13.7092C89.8279 14.2183 89.6858 14.4728 89.2951 14.4728C88.9399 14.4728 88.7978 14.2183 88.7978 13.7092V6.43644C88.7978 6.0728 88.9399 5.89099 89.2596 5.89099C89.4016 5.89099 89.5437 6.00008 89.6503 6.1819C89.6147 6.32735 89.6503 6.5819 89.6503 6.72735ZM98.8852 6.72735C99.6666 6.10917 100.626 5.85462 101.656 5.85462C103.822 5.85462 104.852 6.80008 104.852 8.61826V11.6364C104.852 12.5092 104.568 13.2001 103.964 13.7092C103.432 14.1819 102.686 14.3637 101.727 14.3637C100.626 14.3637 99.7022 14.0728 98.8497 13.4546V16.9455C98.8497 17.491 98.7076 17.7455 98.3524 17.7455C97.9973 17.7455 97.8552 17.491 97.8552 16.9455V6.65462C97.8552 6.10917 97.9973 5.85462 98.2814 5.85462C98.4235 5.85462 98.5656 5.96371 98.6721 6.14553C98.7431 6.36371 98.7787 6.5819 98.8852 6.72735ZM98.8852 12.3274C99.6311 12.9819 100.519 13.3455 101.549 13.3455C102.189 13.3455 102.721 13.2364 103.112 12.9455C103.609 12.6546 103.787 12.1819 103.787 11.6364V8.61826C103.787 7.96371 103.538 7.56371 103.005 7.23644C102.615 7.01826 102.082 6.94553 101.443 6.94553C100.839 6.94553 100.342 7.05462 100.022 7.20008C99.6667 7.34553 99.347 7.6728 98.8497 8.14553V12.3274H98.8852ZM108.369 9.3819C108.369 7.05462 109.15 4.98189 110.678 3.23644C111.21 2.58189 111.708 2.21826 112.027 2.21826C112.134 2.21826 112.276 2.21826 112.311 2.32735C112.418 2.43644 112.454 2.47281 112.454 2.61826C112.454 2.76371 112.24 3.05463 111.85 3.49099C110.216 5.09099 109.434 7.09099 109.434 9.45462C109.434 12.0728 110.287 14.2546 111.956 15.8546C112.311 16.1455 112.454 16.4728 112.454 16.6546C112.454 16.7637 112.418 16.9092 112.311 16.9455C112.205 17.0546 112.098 17.091 112.027 17.091C111.637 17.091 111.104 16.6183 110.393 15.6728C109.008 14.0001 108.369 11.9274 108.369 9.3819ZM129.822 10.0001C129.822 12.3274 129.041 14.4001 127.514 16.1455C126.981 16.8001 126.484 17.1637 126.164 17.1637C126.057 17.1637 125.915 17.1637 125.88 17.0546C125.773 16.9455 125.738 16.8364 125.738 16.7637C125.738 16.6183 125.951 16.291 126.342 15.9637C127.975 14.3637 128.757 12.3637 128.757 10.0001C128.757 7.3819 127.904 5.20007 126.235 3.60007C125.88 3.30917 125.738 2.9819 125.738 2.80008C125.738 2.69099 125.773 2.54553 125.88 2.50916C125.986 2.40007 126.093 2.36371 126.164 2.36371C126.555 2.36371 127.087 2.83644 127.798 3.78189C129.148 5.41826 129.822 7.52735 129.822 10.0001ZM123.962 16.6546H114.158C113.874 16.6546 113.555 16.4001 113.555 16.0364C113.555 15.6728 113.803 15.4183 114.158 15.4183H123.962C124.246 15.4183 124.566 15.6728 124.566 16.0364C124.53 16.4001 124.352 16.6546 123.962 16.6546ZM117 3.49099C117 3.49099 117.852 4.10917 117.852 5.09099C117.852 6.90917 115.437 8.94553 115.437 10.8364C115.437 12.9092 116.964 14.2183 118.385 14.6183C118.598 14.6546 118.669 14.4001 118.421 14.3637C117.817 14.2183 117.142 13.4183 117.142 12.1455C117.142 10.9819 118.243 10.5455 118.669 9.96371C119.131 9.34553 119.025 8.65462 118.776 8.43644C118.527 8.21826 118.669 7.92735 119.167 8.29099C119.628 8.65462 120.055 9.23644 119.913 9.85462C119.699 10.6183 119.948 11.0546 120.374 11.1274C120.765 11.1637 121.227 10.9819 121.156 10.6183C121.12 10.2546 120.907 9.85462 121.014 9.85462C121.298 9.85462 121.902 10.5455 121.902 11.6728C121.902 12.8001 121.014 13.6001 120.729 13.891C120.587 14.0364 120.765 14.291 121.014 14.1819C121.12 14.1455 121.369 13.9637 121.511 13.891C122.186 13.3819 123.322 12.3274 123.322 10.3637C123.322 8.29099 122.576 7.3819 121.795 6.61826C121.049 5.85462 120.872 6.07281 121.049 6.40008C121.689 7.56371 121.298 7.92735 120.836 7.92735C120.303 7.92735 120.232 6.61826 120.055 5.63644C119.557 3.41826 117.639 3.05462 117.284 3.05462C116.893 3.09098 116.538 3.27281 117 3.49099Z" fill="#006400"/>
</g>
<defs>
<clipPath id="clip0_1_744">
<rect width="130" height="16" fill="white" transform="translate(0 2)"/>
</clipPath>
</defs>
</svg>
