<svg width="95" height="42" viewBox="0 0 95 42" fill="none" xmlns="http://www.w3.org/2000/svg">
<path d="M34.6311 22.3614L33.2768 18.1852C33.2775 18.1871 33.2777 18.189 33.2783 18.1909C33.2776 18.1887 33.2772 18.1865 33.2766 18.1844L33.2766 18.184V18.1838L30.588 9.89639C30.441 9.45979 30.0363 9.16676 29.5724 9.17044C29.1071 9.17285 28.7135 9.46016 28.5696 9.90278L26.0177 17.7692H17.9656L15.4089 9.90233C15.2651 9.46016 14.8715 9.17285 14.4063 9.17044H14.4007C13.9426 9.17044 13.5371 9.46166 13.3885 9.90315L10.7074 18.1832L10.707 18.1842V18.1844C10.7063 18.1865 10.706 18.1886 10.7053 18.1908C10.7059 18.1889 10.7062 18.1869 10.7068 18.185L9.34751 22.3615C9.24747 22.6677 9.24705 22.9977 9.3463 23.3042C9.44555 23.6106 9.63935 23.8776 9.8998 24.0667L21.6363 32.6049C21.638 32.6061 21.64 32.6069 21.6417 32.6082C21.6467 32.6118 21.6516 32.6155 21.6567 32.6188C21.6519 32.6156 21.6474 32.6121 21.6427 32.6088L21.6426 32.6087C21.6433 32.6093 21.6442 32.6097 21.6451 32.6102L21.6471 32.6114L21.6474 32.6116C21.6655 32.6243 21.6844 32.6358 21.7039 32.6464C21.7066 32.6479 21.709 32.6498 21.7117 32.6512L21.7118 32.6513C21.7135 32.6521 21.715 32.6532 21.7166 32.654C21.7179 32.6546 21.7193 32.655 21.7205 32.6556C21.7214 32.656 21.7223 32.6563 21.7232 32.6567C21.7254 32.6578 21.7278 32.6584 21.73 32.6596C21.7402 32.6644 21.7509 32.6684 21.7614 32.6727C21.7713 32.6768 21.7808 32.6815 21.7909 32.685L21.7921 32.6856C21.7938 32.6862 21.7953 32.687 21.797 32.6876C21.7991 32.6883 21.8011 32.6892 21.8032 32.6898L21.8057 32.6904C21.8083 32.6913 21.8112 32.6916 21.8138 32.6924L21.817 32.6931C21.8311 32.6974 21.8457 32.7005 21.8603 32.7037C21.866 32.705 21.8714 32.7068 21.8772 32.7079L21.8797 32.7085C21.8816 32.7089 21.8833 32.7095 21.8853 32.7098C21.8883 32.7104 21.8913 32.7113 21.8945 32.7118C21.897 32.7122 21.8995 32.712 21.902 32.7124L21.9033 32.7125H21.9036C21.9313 32.7164 21.9594 32.7192 21.988 32.7192H21.989C22.0176 32.7192 22.0457 32.7164 22.0735 32.7125H22.0738L22.0751 32.7124C22.0776 32.712 22.0802 32.7122 22.0827 32.7118C22.0858 32.7113 22.0888 32.7104 22.092 32.7098C22.0939 32.7095 22.0956 32.7089 22.0975 32.7085L22.0999 32.7079C22.1057 32.7068 22.1114 32.7049 22.1172 32.7037C22.1315 32.7005 22.1459 32.6974 22.16 32.6932L22.1629 32.6925C22.1657 32.6917 22.1685 32.6913 22.1713 32.6905C22.1721 32.6902 22.173 32.6901 22.1739 32.6899C22.176 32.6892 22.1781 32.6883 22.1802 32.6876C22.1819 32.687 22.1834 32.6862 22.185 32.6856L22.1863 32.685C22.197 32.6813 22.207 32.6763 22.2175 32.672C22.2271 32.668 22.237 32.6644 22.2465 32.6599C22.2488 32.6587 22.2513 32.6581 22.2536 32.6569L22.2564 32.6557C22.2577 32.6551 22.259 32.6548 22.2603 32.6541C22.262 32.6532 22.2637 32.6521 22.2653 32.6513L22.2654 32.6512C22.2682 32.6498 22.2707 32.6478 22.2734 32.6463C22.2928 32.6357 22.3116 32.6243 22.3296 32.6117C22.3311 32.6107 22.3327 32.61 22.3342 32.6089L22.3354 32.6082C22.3371 32.6069 22.3392 32.6061 22.3409 32.6048L34.079 24.0664C34.3394 23.8773 34.5331 23.6103 34.6323 23.3039C34.7315 22.9975 34.7311 22.6675 34.6311 22.3614ZM29.5797 10.6728L31.8818 17.7692H27.2777L29.5797 10.6728ZM31.4787 18.9691L30.5393 20.1742L23.6111 29.0625L26.8884 18.9691H31.4787V18.9691ZM21.4187 32.3049C21.4187 32.3048 21.4187 32.3048 21.4187 32.3049C21.4193 32.3067 21.4202 32.3083 21.4208 32.3102C21.4202 32.3083 21.4193 32.3067 21.4187 32.3049ZM20.3676 29.0631L12.5043 18.9691H17.095L20.3676 29.0631ZM14.399 10.6728L16.7053 17.7692H12.1012L14.399 10.6728ZM10.6044 23.096C10.549 23.0556 10.5078 22.9987 10.4867 22.9334C10.4656 22.8681 10.4658 22.7978 10.4871 22.7325L11.4975 19.6278L18.9012 29.1318L10.6044 23.096ZM21.6156 32.589C21.6133 32.5871 21.6111 32.5851 21.6088 32.5832L21.6074 32.5819C21.6029 32.5781 21.5985 32.5743 21.5941 32.5704C21.5855 32.563 21.5772 32.5553 21.5691 32.5474L21.5712 32.5491L21.574 32.5514C21.5912 32.5679 21.6093 32.5834 21.6282 32.5977L21.6288 32.5982C21.6297 32.5989 21.6304 32.5997 21.6313 32.6004C21.6261 32.5967 21.6207 32.593 21.6156 32.589ZM21.9889 30.1775L20.0631 24.2379L18.3549 18.9691H25.6281L21.9889 30.1775ZM22.383 32.5703C22.3785 32.5742 22.3741 32.5781 22.3696 32.5819L22.368 32.5833C22.3657 32.5852 22.3635 32.5872 22.3612 32.5891C22.3563 32.5931 22.3509 32.5967 22.3457 32.6005C22.3466 32.5998 22.3474 32.5989 22.3483 32.5983L22.3488 32.5979C22.3677 32.5836 22.3857 32.5683 22.4027 32.5518C22.4034 32.5511 22.4042 32.5506 22.4049 32.55C22.4058 32.5492 22.4068 32.5485 22.4076 32.5477C22.3996 32.5555 22.3914 32.563 22.383 32.5703ZM33.3744 23.0958L25.0789 29.1299L32.4849 19.6286L33.4912 22.7319C33.5127 22.7972 33.5129 22.8675 33.4919 22.9329C33.471 22.9983 33.4298 23.0553 33.3744 23.0958Z" fill="#231F20"/>
<path d="M63.0107 14.8911H61.3748L61.3823 27.1004H68.0083V25.5902H63.0182L63.0107 14.8911Z" fill="#231F20"/>
<path d="M74.3136 24.9578C73.9009 25.3861 73.218 25.8144 72.2875 25.8144C71.0419 25.8144 70.5391 25.1983 70.5391 24.3943C70.5391 23.1847 71.3796 22.6061 73.1655 22.6061C73.5032 22.6061 74.0435 22.6437 74.3211 22.6963V24.9578H74.3136ZM72.6177 17.5571C71.297 17.5571 70.0814 18.023 69.1359 18.8119L69.7137 19.8187C70.3815 19.428 71.1995 19.0373 72.3776 19.0373C73.7208 19.0373 74.3136 19.7285 74.3136 20.8856V21.4791C74.051 21.4265 73.5107 21.389 73.1805 21.389C70.314 21.389 68.8582 22.3958 68.8582 24.4995C68.8582 26.3854 70.0138 27.3321 71.7623 27.3321C72.9404 27.3321 74.0735 26.7911 74.4637 25.912L74.7639 27.1067H75.9195V20.8555C75.912 18.8795 75.0565 17.5571 72.6177 17.5571Z" fill="#231F20"/>
<path d="M81.1978 25.8707C80.5825 25.8707 80.0422 25.7955 79.6369 25.6077V19.9651C80.1922 19.4993 80.8826 19.1612 81.7606 19.1612C83.3439 19.1612 83.9517 20.2807 83.9517 22.0914C83.9517 24.661 82.9687 25.8707 81.1978 25.8707ZM81.8881 17.5608C80.4249 17.5608 79.6369 18.5601 79.6369 18.5601V16.9823L79.6294 14.8936H78.0311L78.0386 26.8023C78.8415 27.1404 79.9371 27.3207 81.1302 27.3207C84.1844 27.3207 85.6551 25.3673 85.6551 21.9937C85.6476 19.3265 84.2894 17.5608 81.8881 17.5608Z" fill="#231F20"/>
<path d="M45.1994 16.2157C46.6477 16.2157 47.5857 16.6966 48.1935 17.185L48.8989 15.9603C47.9459 15.1188 46.6552 14.668 45.2745 14.668C41.7926 14.668 39.3539 16.7943 39.3539 21.0844C39.3539 25.5775 41.9877 27.3281 44.9968 27.3281C46.5051 27.3281 47.7883 26.975 48.6287 26.6218L48.5912 21.8208V20.3106H44.1264V21.8208H46.9778L47.0154 25.4648C46.6402 25.6526 45.9948 25.8029 45.1169 25.8029C42.7006 25.8029 41.0798 24.2776 41.0798 21.0694C41.0723 17.8011 42.7456 16.2157 45.1994 16.2157Z" fill="#231F20"/>
<path d="M56.7201 14.8896H55.1217L55.1292 16.9408V24.026C55.1292 26.002 55.9847 27.3244 58.4235 27.3244C58.7611 27.3244 59.0913 27.2943 59.4065 27.2342V25.7991C59.1739 25.8367 58.9262 25.8517 58.6636 25.8517C57.3204 25.8517 56.7276 25.1605 56.7276 24.0034V19.1197H59.4065V17.7823H56.7276L56.7201 14.8896Z" fill="#231F20"/>
<path d="M51.0569 27.1003H52.6552V17.7837H51.0569V27.1003Z" fill="#231F20"/>
<path d="M51.0569 16.4988H52.6552V14.8984H51.0569V16.4988Z" fill="#231F20"/>
</svg>
