<svg width="76" height="50" viewBox="0 0 76 50" fill="none" xmlns="http://www.w3.org/2000/svg">
<g clip-path="url(#clip0_1_802)">
<path d="M22.4957 21.2465V33.3671H18.6149V18.132L26.6267 18.1399C30.0296 18.1399 31.1889 20.5258 31.1889 22.693V33.3671H27.3151V22.7129C27.3151 21.8051 26.8425 21.2465 25.7024 21.2465H22.4957V21.2465ZM48.884 21.0644C47.5576 21.0644 46.531 21.7424 46.1022 22.6628C45.8482 23.2153 45.7608 23.6388 45.7309 24.3154H51.7012C51.6246 22.6628 50.8708 21.0644 48.884 21.0644ZM45.7309 26.9414C45.7309 28.9149 46.9649 30.3674 49.168 30.3674C50.882 30.3674 51.7339 29.8951 52.725 28.9149L55.1219 31.1902C53.5872 32.6966 51.9768 33.6114 49.1395 33.6114C45.4245 33.6114 41.8694 31.5975 41.8694 25.728C41.8694 20.7129 44.9734 17.8738 49.0521 17.8738C53.1865 17.8738 55.575 21.1977 55.575 25.5515V26.9414H45.7309ZM38.5935 33.3481C35.432 33.3481 34.0906 31.16 34.0906 28.9989V13.9811H37.9653V18.132H40.8862V21.2465H37.9653V28.7575C37.9653 29.6425 38.3856 30.1338 39.3099 30.1338H40.8862V33.3481H38.5935ZM15.162 16.0266H11.2547V12.3364H15.162V16.0266ZM15.1719 33.5273C12.2458 33.2478 11.2505 31.4832 11.2505 29.447L11.2547 18.132H15.1719V33.5273H15.1719ZM61.7419 33.2018C58.8219 32.9218 57.8313 31.16 57.8313 29.1266V11.8112H61.7419V33.2018ZM75.4129 14.3136C71.8689 -2.86528 38.3287 -3.95281 16.7099 9.13232V10.5769C38.3067 -0.458055 68.9363 -0.393047 71.727 15.4295C72.6606 20.6614 69.6953 26.1162 64.3994 29.2515V33.3537C70.7737 31.0351 77.311 23.5167 75.4129 14.3136ZM36.1149 44.3701C21.1945 45.7413 5.64637 43.5881 3.47085 31.9963C2.40598 26.282 5.02426 20.2244 8.49771 16.4617V14.4497C2.24484 19.9012 -1.14874 26.803 0.804927 34.958C3.29851 45.4153 16.6426 51.3415 37.0102 49.3735C45.0687 48.5915 55.6161 46.0153 62.9488 42.0139V36.3293C56.2952 40.2684 45.2849 43.5259 36.1149 44.3701Z" fill="#0071C5"/>
<path d="M66.2623 12.9608C66.2623 12.7723 66.1516 12.7124 65.8985 12.7124H65.6542V13.2459C65.6897 13.2459 65.8672 13.2524 65.8985 13.2524C66.1516 13.2524 66.2623 13.1684 66.2623 12.9919V12.9608V12.9608ZM66.6434 14.2837H66.3538C66.3277 14.2837 66.3048 14.2675 66.2936 14.2457L65.8985 13.5798C65.8914 13.5663 65.8574 13.5501 65.8438 13.5501H65.6663V14.2104C65.6663 14.2457 65.642 14.2837 65.5953 14.2837H65.3333C65.3006 14.2837 65.2679 14.2457 65.2679 14.2104V12.5401C65.2679 12.4435 65.3058 12.4031 65.388 12.3906C65.4805 12.3785 65.7317 12.3701 65.8672 12.3701C66.3482 12.3701 66.6392 12.5113 66.6392 12.9608V12.9919C66.6392 13.27 66.5 13.4168 66.2842 13.4888L66.6938 14.1774C66.6964 14.1913 66.706 14.2104 66.706 14.2266C66.706 14.2536 66.6896 14.2837 66.6434 14.2837L66.6434 14.2837ZM65.9559 12.0688C65.2432 12.0688 64.6669 12.6538 64.6669 13.3583C64.6669 14.0636 65.2432 14.6394 65.9559 14.6394C66.6649 14.6394 67.2468 14.0636 67.2468 13.3583C67.2468 12.6538 66.6649 12.0688 65.9559 12.0688ZM65.9559 14.905C65.09 14.905 64.3992 14.2104 64.3992 13.3583C64.3992 12.5076 65.09 11.811 65.9559 11.811C66.8125 11.811 67.5163 12.5076 67.5163 13.3583C67.5163 14.2104 66.8125 14.905 65.9559 14.905Z" fill="#0071C5"/>
</g>
<defs>
<clipPath id="clip0_1_802">
<rect width="76" height="50" fill="white"/>
</clipPath>
</defs>
</svg>
