<svg width="138" height="37" viewBox="0 0 138 37" fill="none" xmlns="http://www.w3.org/2000/svg">
<path d="M88.316 15.8202C86.9772 15.8202 86.0217 16.2801 85.5545 17.1522L85.3025 17.6227V16.0475H83.1237V25.6305H85.418V19.9325C85.418 18.5688 86.153 17.7865 87.434 17.7865C88.6572 17.7865 89.3555 18.5477 89.3555 19.8744V25.6358H91.6497V19.4568C91.6445 17.1787 90.4002 15.8202 88.316 15.8202ZM77.2017 15.8202C74.498 15.8202 72.818 17.5169 72.818 20.2549V21.6028C72.818 24.2298 74.5137 25.8631 77.2385 25.8631C79.0602 25.8631 80.3412 25.1918 81.1445 23.8069L79.7217 22.9824C79.1285 23.7805 78.1782 24.2774 77.2385 24.2774C75.8577 24.2774 75.0335 23.4211 75.0335 21.9834V21.6028H81.4332V20.0118C81.4332 17.4641 79.7742 15.8202 77.2017 15.8202ZM79.349 20.0488H75.0335V19.8215C75.0335 18.2411 75.8052 17.3742 77.2017 17.3742C78.5457 17.3742 79.349 18.2305 79.349 19.6682V20.0488ZM114.398 14.4671V12.6329H106.476V14.4671H109.253V23.7964H106.476V25.6305H114.398V23.7964H111.621V14.4671H114.398ZM54.3065 12.3687C50.768 12.3687 48.5683 14.5887 48.5683 18.1671V20.1017C48.5683 23.6801 50.768 25.9001 54.3065 25.9001C57.845 25.9001 60.0448 23.6801 60.0448 20.1017V18.1671C60.0448 14.5939 57.845 12.3687 54.3065 12.3687ZM57.677 20.2338C57.677 22.6071 56.4485 23.9708 54.3065 23.9708C52.1645 23.9708 50.936 22.6071 50.936 20.2338V18.0349C50.936 15.6617 52.1645 14.2979 54.3065 14.2979C56.4485 14.2979 57.677 15.6617 57.677 18.0349V20.2338ZM67.2425 15.8202C66.0403 15.8202 65.0008 16.3224 64.4548 17.1628L64.208 17.5434V16.0475H62.0293V28.9288H64.3235V24.2615L64.5703 24.6262C65.0848 25.3979 66.0928 25.8578 67.2635 25.8578C69.2375 25.8578 71.2325 24.5575 71.2325 21.6504V20.0224C71.2325 17.9345 69.9987 15.8202 67.2425 15.8202ZM68.9382 21.5394C68.9382 23.0828 68.0405 24.0448 66.602 24.0448C65.258 24.0448 64.3235 23.0299 64.3235 21.5764V20.1387C64.3235 18.6639 65.2685 17.6332 66.623 17.6332C68.051 17.6332 68.9435 18.5952 68.9435 20.1387V21.5394H68.9382ZM97.976 12.6382L93.3455 25.6358H95.6712L96.5585 22.8502H101.877L101.887 22.8767L102.764 25.6358H105.09L100.459 12.6382H97.976ZM97.136 21.0108L99.2202 14.4407L101.283 21.0108H97.136Z" fill="black"/>
<path d="M44.0848 16.2642C44.5888 14.7102 44.4208 13.0769 43.607 11.655C42.3785 9.50904 39.9425 8.42018 37.538 8.9329C36.4565 7.71718 34.9655 7.0459 33.3328 7.0459C30.8705 7.0459 28.718 8.62633 27.9568 10.9785C26.366 11.3168 25.0483 12.2788 24.2345 13.7006C23.006 15.8466 23.2843 18.5159 24.9275 20.3553C24.4235 21.9093 24.5915 23.5426 25.4053 24.9645C26.6338 27.1105 29.0698 28.1993 31.4743 27.6866C32.5558 28.9023 34.0468 29.5736 35.6795 29.5736C38.1418 29.5736 40.2943 27.9932 41.0555 25.6411C42.6463 25.3028 43.964 24.3408 44.7778 22.9189C46.0063 20.7729 45.728 18.1036 44.0848 16.2642ZM35.6743 28.0989C34.6873 28.0989 33.737 27.7501 32.9915 27.1211C33.023 27.0999 33.086 27.0682 33.128 27.0471L37.5853 24.4571C37.8163 24.3249 37.9528 24.0871 37.9528 23.8175V17.4958L39.8375 18.5899C39.8638 18.6058 39.8743 18.6269 39.8743 18.6428V23.8809C39.869 26.2066 37.9895 28.0989 35.6743 28.0989ZM26.6705 24.2245C26.177 23.3629 25.9985 22.3586 26.1718 21.3966C26.2033 21.4178 26.261 21.4495 26.303 21.4759L30.7603 24.0659C30.9913 24.1981 31.2643 24.1981 31.49 24.0659L36.929 20.9051V23.0986C36.929 23.1303 36.9133 23.1515 36.9028 23.1568L32.3983 25.7732C30.3928 26.9361 27.8255 26.2436 26.6705 24.2245ZM25.4945 14.4353C25.988 13.5738 26.765 12.9183 27.6785 12.5853C27.6785 12.6223 27.6785 12.691 27.6785 12.7386V17.9186C27.6785 18.1829 27.815 18.4208 28.046 18.5582L33.485 21.7191L31.595 22.8132C31.5688 22.8291 31.5425 22.8238 31.532 22.8185L27.0275 20.2021C25.0273 19.0392 24.3395 16.4545 25.4945 14.4353ZM40.9663 18.0613L35.5273 14.9005L37.412 13.8063C37.4383 13.7905 37.4645 13.7905 37.475 13.801L41.9795 16.4175C43.9798 17.5803 44.6675 20.1703 43.5125 22.1842C43.019 23.0458 42.242 23.7012 41.3285 24.0342C41.3285 23.9972 41.3285 23.9285 41.3285 23.8809V18.7009C41.3338 18.4313 41.192 18.1935 40.9663 18.0613ZM42.8405 15.2229C42.809 15.2018 42.7513 15.17 42.7093 15.1436L38.252 12.5536C38.021 12.4215 37.748 12.4215 37.5223 12.5536L32.0833 15.7145V13.5262C32.0833 13.4945 32.099 13.4733 32.1095 13.468L36.614 10.8516C37.2703 10.471 37.9948 10.286 38.7035 10.286C40.1525 10.286 41.5648 11.0419 42.3418 12.395C42.83 13.2513 43.0085 14.2556 42.8405 15.2229ZM31.0595 19.1238L29.1748 18.0296C29.1485 18.0138 29.138 17.9926 29.138 17.9768V12.7386C29.138 11.6128 29.5738 10.5556 30.3665 9.75747C31.1593 8.95933 32.2093 8.52061 33.3275 8.52061C34.3145 8.52061 35.2648 8.86947 36.0103 9.49847C35.9788 9.51961 35.9158 9.55133 35.8738 9.57247L31.4165 12.1625C31.1855 12.2946 31.049 12.5325 31.049 12.802L31.0595 19.1238ZM32.0833 16.9038L34.5035 15.4978L36.9238 16.9038V19.7158L34.5035 21.1218L32.0833 19.7158V16.9038Z" fill="black"/>
</svg>
